<svg width="30" height="22" viewBox="0 0 30 22" version="1.1" xmlns="http://www.w3.org/2000/svg" xmlns:xlink="http://www.w3.org/1999/xlink"><title>mail</title><desc>Created with Sketch.</desc><g id="clean" stroke="none" stroke-width="1" fill="none" fill-rule="evenodd"><g id="min-width=768-;-max-width=1023" transform="translate(-685.000000, -3581.000000)" fill="#F2BB12"><g id="contact-block" transform="translate(0.000000, 3541.000000)"><g id="contact-group" transform="translate(508.000000, 0.000000)"><path d="M51.6621033,40 L26.3359456,40 C25.0516389,40 24,41.0437159 24,42.3183466 L24,59.5735453 C24,60.848176 25.0516389,61.8918919 26.3359456,61.8918919 L51.6640544,61.8918919 C52.9503122,61.8918919 54,60.848176 54,59.5735453 L54,42.320283 C54,41.0437159 52.9483611,40 51.6621033,40 Z M50.8172364,57.5814931 C51.1443314,57.8858642 51.159511,58.3933109 50.8534715,58.7170686 C50.692862,58.8857329 50.4764309,58.9710343 50.2604894,58.9710343 C50.0616862,58.9710343 49.8609243,58.8988189 49.7037425,58.752934 L43.0301235,52.5545237 L40.1420903,55.3432995 C39.9853981,55.496939 39.7807189,55.5725471 39.5760397,55.5725471 C39.3767468,55.5725471 39.1759849,55.5008163 39.0192927,55.3549315 L35.7219011,52.2913494 L29.0384889,58.7437253 C28.8817967,58.8968802 28.6771175,58.972973 28.4704797,58.972973 C28.2599245,58.972973 28.0479004,58.8915489 27.8887599,58.7306393 C27.5753755,58.4122129 27.5832101,57.9033122 27.9044291,57.5926405 L34.535937,51.1897006 L27.9156913,45.0387877 C27.5885964,44.7339319 27.5714582,44.2264853 27.8794563,43.9027275 C28.1874544,43.5789697 28.7001317,43.5620064 29.0272267,43.8668621 L39.5642878,53.6547185 L49.6924802,43.8780095 C50.0136992,43.5673377 50.5283352,43.5750924 50.8422093,43.8910955 C51.1555937,44.2095219 51.1477591,44.7184226 50.82654,45.0290943 L44.1950321,51.4320342 L50.8172364,57.5814931 Z" id="mail" transform="translate(153.000000, 0.000000)"/></g></g></g></g></svg>