<?xml version="1.0" encoding="UTF-8"?>
<svg width="12px" height="10px" viewBox="0 0 12 10" version="1.1" xmlns="http://www.w3.org/2000/svg" xmlns:xlink="http://www.w3.org/1999/xlink">
    <title>Menu</title>
        <g id="Group" transform="translate(-56.000000, -6.000000)" fill="#1B274E">
            <path d="M57,6 L67,6 C67.5522847,6 68,6.44771525 68,7 L68,7 C68,7.55228475 67.5522847,8 67,8 L57,8 C56.4477153,8 56,7.55228475 56,7 L56,7 L56,7 C56,6.44771525 56.4477153,6 57,6 L57,6 Z M57,10 L67,10 C67.5522847,10 68,10.4477153 68,11 C68,11.5522847 67.5522847,12 67,12 L57,12 C56.4477153,12 56,11.5522847 56,11 C56,10.4477153 56.4477153,10 57,10 L57,10 Z M57,14 L67,14 C67.5522847,14 68,14.4477153 68,15 C68,15.5522847 67.5522847,16 67,16 L57,16 C56.4477153,16 56,15.5522847 56,15 C56,14.4477153 56.4477153,14 57,14 L57,14 Z" id="Combined-Shape"></path>
        </g>
</svg>