<svg width="17" height="30" viewBox="0 0 17 30" version="1.1" xmlns="http://www.w3.org/2000/svg" xmlns:xlink="http://www.w3.org/1999/xlink"><title>phone</title><desc>Created with Sketch.</desc><g id="clean" stroke="none" stroke-width="1" fill="none" fill-rule="evenodd"><g id="min-width=768-;-max-width=1023" transform="translate(-615.000000, -3577.000000)" fill="#F2BB12"><g id="contact-block" transform="translate(0.000000, 3541.000000)"><g id="contact-group" transform="translate(508.000000, 0.000000)"><path d="M44.5424837,36 L32.124183,36 C30.9481481,36 30,36.9259574 30,38.0744681 L30,63.9255319 C30,65.0740426 30.9481481,66 32.124183,66 L44.5424837,66 C45.7185185,66 46.6666667,65.0740426 46.6666667,63.9255319 L46.6666667,38.0744681 C46.6666667,36.9259574 45.7185185,36 44.5424837,36 Z M37.4074074,39 L39.2592593,39 C39.9080247,39 40.4166667,39.4394667 40.4166667,40 C40.4166667,40.5605333 39.9080247,41 39.2592593,41 L37.4074074,41 C36.758642,41 36.25,40.5605333 36.25,40 C36.25,39.4394667 36.758642,39 37.4074074,39 Z M39.6153846,64 L37.0512821,64 C36.6021368,64 36.25,63.5605333 36.25,63 C36.25,62.4394667 36.6021368,62 37.0512821,62 L39.6153846,62 C40.0645299,62 40.4166667,62.4394667 40.4166667,63 C40.4166667,63.5605333 40.0645299,64 39.6153846,64 Z M45.625,60 L31.0416667,60 L31.0416667,42 L45.625,42 L45.625,60 Z" id="phone" transform="translate(77.000000, 0.000000)"/></g></g></g></g></svg>