<svg width="30" height="30" viewBox="0 0 30 30" version="1.1" xmlns="http://www.w3.org/2000/svg" xmlns:xlink="http://www.w3.org/1999/xlink"><title>skype</title><desc>Created with Sketch.</desc><g id="clean" stroke="none" stroke-width="1" fill="none" fill-rule="evenodd"><g id="min-width=768-;-max-width=1023" transform="translate(-532.000000, -3577.000000)" fill="#F2BB12"><g id="contact-block" transform="translate(0.000000, 3541.000000)"><g id="contact-group" transform="translate(508.000000, 0.000000)"><path d="M53.1374647,54.1846635 C53.6895579,55.2801252 54,56.5129543 54,57.8188141 C54,62.3362893 50.2852775,66 45.7027281,66 C44.2828081,66 42.949318,65.6470179 41.7798683,65.0279951 C40.9296802,65.1827508 40.0547977,65.2644757 39.1587488,65.2644757 C31.2565851,65.2644757 24.8501881,58.9490523 24.8501881,51.1556251 C24.8501881,50.1853591 24.9507291,49.235959 25.1394638,48.3213354 C24.4162747,47.1041558 24,45.6922274 24,44.1829247 C24,39.6619718 27.7147225,36 32.2990357,36 C33.9200376,36 35.4334431,36.4607894 36.7122531,37.2554338 C37.5095249,37.1198053 38.3261994,37.0485133 39.1587488,37.0485133 C47.0626764,37.0485133 53.4673095,43.3656755 53.4673095,51.1556251 C53.4673095,52.1954443 53.3544214,53.2074422 53.1374647,54.1846635 Z M46.9846477,57.9919348 C47.6567823,57.0471506 48,55.9676504 48,54.7835682 C48,53.792697 47.8015773,52.9418594 47.4100946,52.2487814 C47.018612,51.561021 46.4698212,50.9867057 45.7762355,50.5382434 C45.0933754,50.0968714 44.2603575,49.7210848 43.2932702,49.4162014 C42.3404837,49.1130905 41.2625657,48.8312506 40.0881178,48.5830896 C39.1603575,48.3703802 38.4846477,48.2055304 38.0824395,48.093858 C37.6891693,47.9875033 37.2958991,47.8350616 36.915142,47.6453957 C36.546898,47.4610476 36.2555205,47.2447931 36.051735,46.9930869 C35.8550999,46.7591066 35.7603575,46.484357 35.7603575,46.1582026 C35.7603575,45.622884 36.0553102,45.1708765 36.6595163,44.7791368 C37.2869611,44.3696712 38.1342797,44.1640521 39.1710831,44.1640521 C40.2919033,44.1640521 41.1052576,44.3484002 41.5932702,44.7170965 C42.0955836,45.0964283 42.5335436,45.6335195 42.8946372,46.3141895 C43.2074658,46.845963 43.4899054,47.2182044 43.7616193,47.4575024 C44.0512093,47.7127537 44.473081,47.8439245 45.0093586,47.8439245 C45.5992639,47.8439245 46.1015773,47.6365328 46.4984227,47.2252947 C46.8934805,46.8193743 47.0936909,46.3514136 47.0936909,45.8373659 C47.0936909,45.3038199 46.9399579,44.7525481 46.6396425,44.1977311 C46.3429022,43.6482319 45.8674027,43.1217761 45.2292324,42.6254542 C44.5964248,42.1344501 43.7920084,41.7373925 42.8356467,41.4431446 C41.8846477,41.1488966 40.7459516,41 39.451735,41 C37.8303891,41 36.4003155,41.2233449 35.197266,41.6647168 C33.9763407,42.109634 33.0289169,42.7654879 32.3818086,43.6039174 C31.7275499,44.4476646 31.3968454,45.4279004 31.3968454,46.5127182 C31.3968454,47.652486 31.7132492,48.6220863 32.3353312,49.396703 C32.9484753,50.1571391 33.7868559,50.7651334 34.8272345,51.2029602 C35.8425868,51.6336967 37.120715,52.0112559 38.6276551,52.33032 C39.7341746,52.5607551 40.6279706,52.7823274 41.287592,52.9844013 C41.918612,53.1829301 42.4388013,53.4665426 42.8356467,53.8316937 C43.211041,54.1826642 43.395163,54.6293539 43.395163,55.1948063 C43.395163,55.9144731 43.044795,56.5029691 42.3208202,56.9904281 C41.5825447,57.4902951 40.5993691,57.7455464 39.3998948,57.7455464 C38.5293375,57.7455464 37.8196635,57.6179208 37.2941115,57.373305 C36.7721346,57.1269166 36.362776,56.8131703 36.0767613,56.4373837 C35.7818086,56.0527342 35.5029443,55.5599575 35.245531,54.9750066 C35.0149317,54.4414606 34.7289169,54.0249047 34.3946372,53.7430648 C34.0460568,53.4505894 33.6152471,53.3034654 33.1182965,53.3034654 C32.5105152,53.3034654 32.0010515,53.4895861 31.6042061,53.8618275 C31.2037855,54.2358415 31,54.6931667 31,55.2178499 C31,56.0633697 31.311041,56.9372507 31.9277603,57.8164495 C32.5373291,58.6921032 33.3399579,59.3975893 34.3141956,59.9187273 C35.6781283,60.6366215 37.4246057,61 39.5071504,61 C41.2429022,61 42.7659306,60.7323407 44.0369085,60.2076575 C45.3239748,59.6794292 46.3143007,58.9349464 46.9846477,57.9919348 Z" id="skype"/></g></g></g></g></svg>