<svg width="171" height="19" viewBox="0 0 171 19" version="1.1" xmlns="http://www.w3.org/2000/svg" xmlns:xlink="http://www.w3.org/1999/xlink"><title>NOINTERFACE</title><desc>logo</desc><g id="Artboard" fill-rule="nonzero" fill="#1B274E"><g id="logo"><path d="M3.4375,18 L3.4375,7.4179688 L3.6484375,7.4179688 L11.453125,18 L14.3828125,18 L14.3828125,1.08984375 L10.9960937,1.08984375 L10.9960937,11.625 L10.7851562,11.625 L3.00390625,1.08984375 L0.05078125,1.08984375 L0.05078125,18 L3.4375,18 Z M25.8789062,0.65625 C30.8710938,0.65625 34,4.06640625 34,9.5390625 C34,15.0234375 30.8828125,18.4335938 25.8789062,18.4335938 C20.8632812,18.4335938 17.734375,15.0234375 17.734375,9.5390625 C17.734375,4.0546875 20.9101562,0.65625 25.8789062,0.65625 Z M25.8789062,3.76171875 C23.1367188,3.76171875 21.3554688,6 21.3554688,9.5390625 C21.3554688,13.0664062 23.1015625,15.328125 25.8789062,15.328125 C28.6328125,15.328125 30.390625,13.0664062 30.390625,9.5390625 C30.390625,6 28.6328125,3.76171875 25.8789062,3.76171875 Z M40.890625,18 L40.890625,1.08984375 L37.3515625,1.08984375 L37.3515625,18 L40.890625,18 Z M48.3789062,18 L48.3789062,7.4179688 L48.5898438,7.4179688 L56.3945312,18 L59.3242188,18 L59.3242188,1.08984375 L55.9375,1.08984375 L55.9375,11.625 L55.7265625,11.625 L47.9453125,1.08984375 L44.9921875,1.08984375 L44.9921875,18 L48.3789062,18 Z M71.0664062,18 L71.0664062,4.11328125 L76.140625,4.11328125 L76.140625,1.08984375 L62.453125,1.08984375 L62.453125,4.11328125 L67.5273438,4.11328125 L67.5273438,18 L71.0664062,18 Z M90.4726562,14.9765625 L82.8085938,14.9765625 L82.8085938,10.8632812 L90.0390625,10.8632812 L90.0390625,8.0625 L82.8085938,8.0625 L82.8085938,4.11328125 L90.4726562,4.11328125 L90.4726562,1.08984375 L79.2695312,1.08984375 L79.2695312,18 L90.4726562,18 L90.4726562,14.9765625 Z M97.7382812,3.94921875 L97.7382812,9.1523438 L100.84375,9.1523438 C102.625,9.1523438 103.667969,8.1914062 103.667969,6.5625 C103.667969,4.95703125 102.566406,3.94921875 100.808594,3.94921875 L97.7382812,3.94921875 Z M97.7382812,11.8710938 L97.7382812,18 L94.1992188,18 L94.1992188,1.08984375 L101.300781,1.08984375 C105.015625,1.08984375 107.300781,3.15234375 107.300781,6.515625 C107.300781,8.671875 106.175781,10.546875 104.230469,11.3203125 L107.792969,18 L103.785156,18 L100.632812,11.8710938 L97.7382812,11.8710938 Z M114.402344,18 L114.402344,11.4140625 L121.28125,11.4140625 L121.28125,8.5195312 L114.402344,8.5195312 L114.402344,4.11328125 L121.9375,4.11328125 L121.9375,1.08984375 L110.863281,1.08984375 L110.863281,18 L114.402344,18 Z M135.132812,18 L133.855469,13.96875 L127.914062,13.96875 L126.613281,18 L123.0625,18 L128.933594,1.08984375 L133.09375,1.08984375 L138.964844,18 L135.132812,18 Z M130.796875,4.60546875 L128.675781,11.2382812 L133.105469,11.2382812 L131.007812,4.60546875 L130.796875,4.60546875 Z M148.269531,18.4335938 C152.347656,18.4335938 155.324219,15.9140625 155.617188,12.2578125 L152.171875,12.2578125 C151.832031,14.1210938 150.308594,15.3164062 148.28125,15.3164062 C145.609375,15.3164062 143.957031,13.1015625 143.957031,9.5390625 C143.957031,5.9765625 145.609375,3.7734375 148.269531,3.7734375 C150.285156,3.7734375 151.820312,5.0507812 152.160156,6.9960938 L155.605469,6.9960938 C155.347656,3.31640625 152.277344,0.65625 148.269531,0.65625 C143.359375,0.65625 140.335938,4.04296875 140.335938,9.5390625 C140.335938,15.046875 143.371094,18.4335938 148.269531,18.4335938 Z M170.078125,14.9765625 L162.414062,14.9765625 L162.414062,10.8632812 L169.644531,10.8632812 L169.644531,8.0625 L162.414062,8.0625 L162.414062,4.11328125 L170.078125,4.11328125 L170.078125,1.08984375 L158.875,1.08984375 L158.875,18 L170.078125,18 L170.078125,14.9765625 Z" id="text"/><rect id="horizontalbar" transform="translate(23.500000, 10.000000) rotate(-40.000000) translate(-23.500000, -10.000000)" x="22" y="4" width="3" height="13"/></g></g></svg>