<svg width="18" height="15" viewBox="0 0 18 15" version="1.1" xmlns="http://www.w3.org/2000/svg" xmlns:xlink="http://www.w3.org/1999/xlink"><title>Combined-Shape</title><desc>Created with Sketch.</desc><g id="Page-1" stroke="none" stroke-width="1" fill="none" fill-rule="evenodd"><g id="menu" fill-rule="nonzero" fill="#1B274E"><path d="M1.5,0 L16.5,0 C17.3284271,0 18,0.671572875 18,1.5 L18,1.5 C18,2.32842713 17.3284271,3 16.5,3 L1.5,3 C0.67157295,3 0,2.32842713 0,1.5 L0,1.5 L0,1.5 C0,0.671572875 0.67157295,0 1.5,0 L1.5,0 Z M1.5,6 L16.5,6 C17.3284271,6 18,6.67157295 18,7.5 C18,8.32842705 17.3284271,9 16.5,9 L1.5,9 C0.67157295,9 0,8.32842705 0,7.5 C0,6.67157295 0.67157295,6 1.5,6 L1.5,6 Z M1.5,12 L16.5,12 C17.3284271,12 18,12.671573 18,13.5 C18,14.328427 17.3284271,15 16.5,15 L1.5,15 C0.67157295,15 0,14.328427 0,13.5 C0,12.671573 0.67157295,12 1.5,12 L1.5,12 Z" id="Combined-Shape"/></g></g></svg>